# Blender v2.78 (sub 0) OBJ File: ''
# www.blender.org
mtllib connectionobj.mtl
o Cylinder_Cylinder.002
v 0.000000 -3.000000 0.000000
v 0.000000 3.000000 0.000000
v 0.000000 -3.000000 -1.000000
v 0.000000 3.000000 -1.000000
v 0.382683 -3.000000 -0.923880
v 0.382683 3.000000 -0.923880
v 0.707107 -3.000000 -0.707107
v 0.707107 3.000000 -0.707107
v 0.923880 -3.000000 -0.382683
v 0.923880 3.000000 -0.382683
v 1.000000 -3.000000 0.000000
v 1.000000 3.000000 0.000000
v 0.923880 -3.000000 0.382684
v 0.923880 3.000000 0.382684
v 0.707107 -3.000000 0.707107
v 0.707107 3.000000 0.707107
v 0.382683 -3.000000 0.923880
v 0.382683 3.000000 0.923880
v 0.000000 -3.000000 1.000000
v 0.000000 3.000000 1.000000
v -0.382683 -3.000000 0.923880
v -0.382683 3.000000 0.923880
v -0.707107 -3.000000 0.707107
v -0.707107 3.000000 0.707107
v -0.923880 -3.000000 0.382684
v -0.923880 3.000000 0.382684
v -1.000000 -3.000000 -0.000000
v -1.000000 3.000000 -0.000000
v -0.923879 -3.000000 -0.382684
v -0.923879 3.000000 -0.382684
v -0.707107 -3.000000 -0.707107
v -0.707107 3.000000 -0.707107
v -0.382683 -3.000000 -0.923880
v -0.382683 3.000000 -0.923880
v 0.000000 -2.142857 -0.710958
v -0.000000 -1.285714 -0.569214
v -0.000000 -0.428571 -0.480624
v -0.000000 0.428572 -0.480624
v -0.000000 1.285714 -0.569214
v 0.000000 2.142857 -0.710958
v 0.272072 2.142857 -0.656839
v 0.217829 1.285714 -0.525885
v 0.183927 0.428571 -0.444038
v 0.183927 -0.428572 -0.444038
v 0.217829 -1.285714 -0.525885
v 0.272072 -2.142857 -0.656839
v 0.502723 2.142857 -0.502723
v 0.402495 1.285714 -0.402495
v 0.339852 0.428571 -0.339852
v 0.339852 -0.428572 -0.339852
v 0.402495 -1.285714 -0.402495
v 0.502723 -2.142857 -0.502723
v 0.656839 2.142857 -0.272072
v 0.525885 1.285714 -0.217829
v 0.444038 0.428571 -0.183927
v 0.444038 -0.428572 -0.183927
v 0.525885 -1.285714 -0.217829
v 0.656839 -2.142857 -0.272072
v 0.710958 2.142857 0.000000
v 0.569214 1.285714 0.000000
v 0.480624 0.428571 0.000000
v 0.480624 -0.428572 0.000000
v 0.569214 -1.285714 0.000000
v 0.710958 -2.142857 0.000000
v 0.656839 2.142857 0.272072
v 0.525885 1.285714 0.217829
v 0.444038 0.428571 0.183927
v 0.444038 -0.428572 0.183927
v 0.525885 -1.285714 0.217829
v 0.656839 -2.142857 0.272072
v 0.502723 2.142857 0.502723
v 0.402495 1.285714 0.402495
v 0.339852 0.428571 0.339852
v 0.339852 -0.428572 0.339852
v 0.402495 -1.285714 0.402495
v 0.502723 -2.142857 0.502723
v 0.272072 2.142857 0.656839
v 0.217829 1.285714 0.525885
v 0.183927 0.428571 0.444038
v 0.183927 -0.428572 0.444038
v 0.217829 -1.285714 0.525885
v 0.272072 -2.142857 0.656839
v 0.000000 2.142857 0.710958
v 0.000000 1.285714 0.569214
v 0.000000 0.428571 0.480624
v 0.000000 -0.428572 0.480624
v 0.000000 -1.285714 0.569214
v 0.000000 -2.142857 0.710958
v -0.272072 2.142857 0.656839
v -0.217829 1.285714 0.525885
v -0.183927 0.428571 0.444038
v -0.183927 -0.428572 0.444038
v -0.217829 -1.285714 0.525885
v -0.272072 -2.142857 0.656839
v -0.502723 2.142857 0.502723
v -0.402495 1.285714 0.402495
v -0.339852 0.428571 0.339852
v -0.339852 -0.428572 0.339852
v -0.402495 -1.285714 0.402495
v -0.502723 -2.142857 0.502723
v -0.656839 2.142857 0.272072
v -0.525885 1.285714 0.217829
v -0.444038 0.428571 0.183927
v -0.444038 -0.428572 0.183927
v -0.525885 -1.285714 0.217829
v -0.656839 -2.142857 0.272072
v -0.710958 2.142857 -0.000000
v -0.569214 1.285714 0.000000
v -0.480624 0.428571 0.000000
v -0.480624 -0.428572 0.000000
v -0.569214 -1.285714 0.000000
v -0.710958 -2.142857 -0.000000
v -0.656839 2.142857 -0.272072
v -0.525885 1.285714 -0.217829
v -0.444038 0.428571 -0.183927
v -0.444038 -0.428572 -0.183927
v -0.525885 -1.285714 -0.217829
v -0.656839 -2.142857 -0.272072
v -0.502723 2.142857 -0.502723
v -0.402495 1.285714 -0.402495
v -0.339852 0.428571 -0.339852
v -0.339852 -0.428572 -0.339852
v -0.402495 -1.285714 -0.402495
v -0.502723 -2.142857 -0.502723
v -0.272072 2.142857 -0.656839
v -0.217829 1.285714 -0.525885
v -0.183927 0.428571 -0.444038
v -0.183927 -0.428572 -0.444038
v -0.217829 -1.285714 -0.525885
v -0.272072 -2.142857 -0.656839
vn 0.0000 -1.0000 0.0000
vn 0.0000 1.0000 0.0000
vn 0.1852 -0.3140 -0.9312
vn 0.5275 -0.3140 -0.7894
vn 0.7894 -0.3140 -0.5275
vn 0.9312 -0.3140 -0.1852
vn 0.9312 -0.3140 0.1852
vn 0.7894 -0.3140 0.5275
vn 0.5275 -0.3140 0.7894
vn 0.1852 -0.3140 0.9312
vn -0.1852 -0.3140 0.9312
vn -0.5275 -0.3140 0.7894
vn -0.7894 -0.3140 0.5275
vn -0.9312 -0.3140 0.1852
vn -0.9312 -0.3140 -0.1852
vn -0.7894 -0.3140 -0.5275
vn -0.5275 -0.3140 -0.7894
vn -0.1852 -0.3140 -0.9312
vn -0.1852 0.3140 -0.9312
vn -0.1926 0.1601 -0.9681
vn -0.1941 0.1009 -0.9758
vn -0.1951 -0.0000 -0.9808
vn -0.1941 -0.1009 -0.9758
vn -0.1926 -0.1601 -0.9681
vn -0.5275 0.3140 -0.7894
vn -0.5484 0.1601 -0.8207
vn -0.5527 0.1009 -0.8272
vn -0.5556 -0.0000 -0.8315
vn -0.5527 -0.1009 -0.8272
vn -0.5484 -0.1601 -0.8207
vn -0.7894 0.3140 -0.5275
vn -0.8207 0.1601 -0.5484
vn -0.8272 0.1009 -0.5527
vn -0.8315 -0.0000 -0.5556
vn -0.8272 -0.1009 -0.5527
vn -0.8207 -0.1601 -0.5484
vn -0.9312 0.3140 -0.1852
vn -0.9681 0.1601 -0.1926
vn -0.9758 0.1009 -0.1941
vn -0.9808 0.0000 -0.1951
vn -0.9758 -0.1009 -0.1941
vn -0.9681 -0.1601 -0.1926
vn -0.9312 0.3140 0.1852
vn -0.9681 0.1601 0.1926
vn -0.9758 0.1009 0.1941
vn -0.9808 -0.0000 0.1951
vn -0.9758 -0.1009 0.1941
vn -0.9681 -0.1601 0.1926
vn -0.7894 0.3140 0.5275
vn -0.8207 0.1601 0.5484
vn -0.8272 0.1009 0.5527
vn -0.8315 0.0000 0.5556
vn -0.8272 -0.1009 0.5527
vn -0.8207 -0.1601 0.5484
vn -0.5275 0.3140 0.7894
vn -0.5484 0.1601 0.8207
vn -0.5527 0.1009 0.8272
vn -0.5556 0.0000 0.8315
vn -0.5527 -0.1009 0.8272
vn -0.5484 -0.1601 0.8207
vn -0.1852 0.3140 0.9312
vn -0.1926 0.1601 0.9681
vn -0.1941 0.1009 0.9758
vn -0.1951 0.0000 0.9808
vn -0.1941 -0.1009 0.9758
vn -0.1926 -0.1601 0.9681
vn 0.1852 0.3140 0.9312
vn 0.1926 0.1601 0.9681
vn 0.1941 0.1009 0.9758
vn 0.1951 0.0000 0.9808
vn 0.1941 -0.1009 0.9758
vn 0.1926 -0.1601 0.9681
vn 0.5275 0.3140 0.7894
vn 0.5484 0.1601 0.8207
vn 0.5527 0.1009 0.8272
vn 0.5556 0.0000 0.8315
vn 0.5527 -0.1009 0.8272
vn 0.5484 -0.1601 0.8207
vn 0.7894 0.3140 0.5275
vn 0.8207 0.1601 0.5484
vn 0.8272 0.1009 0.5527
vn 0.8315 0.0000 0.5556
vn 0.8272 -0.1009 0.5527
vn 0.8207 -0.1601 0.5484
vn 0.9312 0.3140 0.1852
vn 0.9681 0.1601 0.1926
vn 0.9758 0.1009 0.1941
vn 0.9808 0.0000 0.1951
vn 0.9758 -0.1009 0.1941
vn 0.9681 -0.1601 0.1926
vn 0.9312 0.3140 -0.1852
vn 0.9681 0.1601 -0.1926
vn 0.9758 0.1009 -0.1941
vn 0.9808 -0.0000 -0.1951
vn 0.9758 -0.1009 -0.1941
vn 0.9681 -0.1601 -0.1926
vn 0.7894 0.3140 -0.5275
vn 0.8207 0.1601 -0.5484
vn 0.8272 0.1009 -0.5527
vn 0.8315 0.0000 -0.5556
vn 0.8272 -0.1009 -0.5527
vn 0.8207 -0.1601 -0.5484
vn 0.5275 0.3140 -0.7894
vn 0.5484 0.1601 -0.8207
vn 0.5527 0.1009 -0.8272
vn 0.5556 0.0000 -0.8315
vn 0.5527 -0.1009 -0.8272
vn 0.5484 -0.1601 -0.8207
vn 0.1852 0.3140 -0.9312
vn 0.1926 0.1601 -0.9681
vn 0.1941 0.1009 -0.9758
vn 0.1951 0.0000 -0.9808
vn 0.1941 -0.1009 -0.9758
vn 0.1926 -0.1601 -0.9681
usemtl None
s off
f 1//1 3//1 5//1
f 2//2 6//2 4//2
f 40//3 4//3 6//3 41//3
f 1//1 5//1 7//1
f 2//2 8//2 6//2
f 41//4 6//4 8//4 47//4
f 1//1 7//1 9//1
f 2//2 10//2 8//2
f 47//5 8//5 10//5 53//5
f 1//1 9//1 11//1
f 2//2 12//2 10//2
f 53//6 10//6 12//6 59//6
f 1//1 11//1 13//1
f 2//2 14//2 12//2
f 59//7 12//7 14//7 65//7
f 1//1 13//1 15//1
f 2//2 16//2 14//2
f 65//8 14//8 16//8 71//8
f 1//1 15//1 17//1
f 2//2 18//2 16//2
f 71//9 16//9 18//9 77//9
f 1//1 17//1 19//1
f 2//2 20//2 18//2
f 77//10 18//10 20//10 83//10
f 1//1 19//1 21//1
f 2//2 22//2 20//2
f 83//11 20//11 22//11 89//11
f 1//1 21//1 23//1
f 2//2 24//2 22//2
f 89//12 22//12 24//12 95//12
f 1//1 23//1 25//1
f 2//2 26//2 24//2
f 95//13 24//13 26//13 101//13
f 1//1 25//1 27//1
f 2//2 28//2 26//2
f 101//14 26//14 28//14 107//14
f 1//1 27//1 29//1
f 2//2 30//2 28//2
f 107//15 28//15 30//15 113//15
f 1//1 29//1 31//1
f 2//2 32//2 30//2
f 113//16 30//16 32//16 119//16
f 1//1 31//1 33//1
f 2//2 34//2 32//2
f 119//17 32//17 34//17 125//17
f 1//1 33//1 3//1
f 2//2 4//2 34//2
f 125//18 34//18 4//18 40//18
f 33//19 130//19 35//19 3//19
f 130//20 129//20 36//20 35//20
f 129//21 128//21 37//21 36//21
f 128//22 127//22 38//22 37//22
f 127//23 126//23 39//23 38//23
f 126//24 125//24 40//24 39//24
f 31//25 124//25 130//25 33//25
f 124//26 123//26 129//26 130//26
f 123//27 122//27 128//27 129//27
f 122//28 121//28 127//28 128//28
f 121//29 120//29 126//29 127//29
f 120//30 119//30 125//30 126//30
f 29//31 118//31 124//31 31//31
f 118//32 117//32 123//32 124//32
f 117//33 116//33 122//33 123//33
f 116//34 115//34 121//34 122//34
f 115//35 114//35 120//35 121//35
f 114//36 113//36 119//36 120//36
f 27//37 112//37 118//37 29//37
f 112//38 111//38 117//38 118//38
f 111//39 110//39 116//39 117//39
f 110//40 109//40 115//40 116//40
f 109//41 108//41 114//41 115//41
f 108//42 107//42 113//42 114//42
f 25//43 106//43 112//43 27//43
f 106//44 105//44 111//44 112//44
f 105//45 104//45 110//45 111//45
f 104//46 103//46 109//46 110//46
f 103//47 102//47 108//47 109//47
f 102//48 101//48 107//48 108//48
f 23//49 100//49 106//49 25//49
f 100//50 99//50 105//50 106//50
f 99//51 98//51 104//51 105//51
f 98//52 97//52 103//52 104//52
f 97//53 96//53 102//53 103//53
f 96//54 95//54 101//54 102//54
f 21//55 94//55 100//55 23//55
f 94//56 93//56 99//56 100//56
f 93//57 92//57 98//57 99//57
f 92//58 91//58 97//58 98//58
f 91//59 90//59 96//59 97//59
f 90//60 89//60 95//60 96//60
f 19//61 88//61 94//61 21//61
f 88//62 87//62 93//62 94//62
f 87//63 86//63 92//63 93//63
f 86//64 85//64 91//64 92//64
f 85//65 84//65 90//65 91//65
f 84//66 83//66 89//66 90//66
f 17//67 82//67 88//67 19//67
f 82//68 81//68 87//68 88//68
f 81//69 80//69 86//69 87//69
f 80//70 79//70 85//70 86//70
f 79//71 78//71 84//71 85//71
f 78//72 77//72 83//72 84//72
f 15//73 76//73 82//73 17//73
f 76//74 75//74 81//74 82//74
f 75//75 74//75 80//75 81//75
f 74//76 73//76 79//76 80//76
f 73//77 72//77 78//77 79//77
f 72//78 71//78 77//78 78//78
f 13//79 70//79 76//79 15//79
f 70//80 69//80 75//80 76//80
f 69//81 68//81 74//81 75//81
f 68//82 67//82 73//82 74//82
f 67//83 66//83 72//83 73//83
f 66//84 65//84 71//84 72//84
f 11//85 64//85 70//85 13//85
f 64//86 63//86 69//86 70//86
f 63//87 62//87 68//87 69//87
f 62//88 61//88 67//88 68//88
f 61//89 60//89 66//89 67//89
f 60//90 59//90 65//90 66//90
f 9//91 58//91 64//91 11//91
f 58//92 57//92 63//92 64//92
f 57//93 56//93 62//93 63//93
f 56//94 55//94 61//94 62//94
f 55//95 54//95 60//95 61//95
f 54//96 53//96 59//96 60//96
f 7//97 52//97 58//97 9//97
f 52//98 51//98 57//98 58//98
f 51//99 50//99 56//99 57//99
f 50//100 49//100 55//100 56//100
f 49//101 48//101 54//101 55//101
f 48//102 47//102 53//102 54//102
f 5//103 46//103 52//103 7//103
f 46//104 45//104 51//104 52//104
f 45//105 44//105 50//105 51//105
f 44//106 43//106 49//106 50//106
f 43//107 42//107 48//107 49//107
f 42//108 41//108 47//108 48//108
f 3//109 35//109 46//109 5//109
f 35//110 36//110 45//110 46//110
f 36//111 37//111 44//111 45//111
f 37//112 38//112 43//112 44//112
f 38//113 39//113 42//113 43//113
f 39//114 40//114 41//114 42//114
